<svg width="1985" height="305" viewBox="0 0 1985 305" fill="none" xmlns="http://www.w3.org/2000/svg">
<g clip-path="url(#clip0_598_2)">
<path fill-rule="evenodd" clip-rule="evenodd" d="M1984.99 212.339C1984.72 202.206 1982.94 192.425 1979.64 183.038C1976.59 173.653 1972.14 165.136 1966.26 157.557C1960.66 150.012 1953.84 143.486 1945.86 137.973C1943.42 136.233 1940.91 134.618 1938.34 133.125C1944.55 128.311 1949.97 122.49 1954.6 115.695C1963.12 103.202 1967.46 89.3931 1967.46 74.4874C1967.46 64.2545 1965.46 54.4878 1961.43 45.2818C1957.49 36.2579 1952.08 28.3815 1945.19 21.7585C1938.31 14.895 1930.18 9.63151 1920.9 5.95442C1911.72 1.96006 1901.88 0 1891.5 0C1881.06 0 1871.08 1.98329 1861.66 5.98346L1861.61 6.00419L1861.56 6.02535C1852.54 9.97202 1844.57 15.3657 1837.74 22.2035C1830.92 29.0285 1825.53 36.977 1821.59 45.9756C1817.55 54.9452 1815.54 64.4826 1815.54 74.4874C1815.54 89.3931 1819.88 103.202 1828.39 115.695C1832.98 122.433 1838.36 128.214 1844.5 133.004C1833.6 139.212 1824.2 147.543 1816.34 157.953L1816.34 157.964L1816.33 157.975C1804.61 173.607 1798.55 191.852 1798.01 212.343L1798 212.571L1798 212.799C1798.28 225.681 1800.89 237.874 1805.9 249.28L1805.91 249.317L1805.93 249.358C1810.87 260.328 1817.49 270.008 1825.8 278.316C1834.15 286.668 1843.88 293.196 1854.93 297.896L1854.97 297.912L1855.01 297.929C1866.43 302.665 1878.63 305 1891.5 305C1904.15 305 1916.21 302.657 1927.62 297.929C1938.92 293.238 1948.81 286.71 1957.2 278.316C1965.51 270.008 1972.13 260.328 1977.06 249.358L1977.08 249.317L1977.1 249.28C1982.11 237.874 1984.72 225.681 1984.99 212.799L1985 212.567L1984.99 212.339ZM1846.37 167.83C1852.22 161.978 1858.91 157.447 1866.48 154.195C1874.2 150.983 1882.51 149.348 1891.5 149.348C1900.51 149.348 1908.67 150.99 1916.1 154.176L1916.15 154.195L1916.19 154.213C1923.99 157.464 1930.6 161.962 1936.12 167.702L1936.25 167.831L1936.38 167.956C1942.12 173.483 1946.61 180.094 1949.87 187.896L1949.88 187.941L1949.9 187.985C1953.09 195.419 1954.73 203.585 1954.73 212.596C1954.73 221.587 1953.1 229.899 1949.88 237.625C1946.63 245.199 1942.1 251.884 1936.25 257.736C1930.72 263.273 1924.07 267.694 1916.19 270.979L1916.15 270.995L1916.1 271.016C1908.67 274.201 1900.51 275.844 1891.5 275.844C1882.51 275.844 1874.2 274.21 1866.48 270.995C1858.89 267.736 1852.21 263.319 1846.38 257.732C1840.79 251.901 1836.38 245.215 1833.12 237.625C1829.9 229.899 1828.27 221.587 1828.27 212.596C1828.27 203.585 1829.91 195.419 1833.1 187.985L1833.11 187.941L1833.13 187.896C1836.42 180.018 1840.84 173.366 1846.37 167.83ZM1923.94 106.935C1919.86 111.014 1915.04 114.322 1909.41 116.846C1903.94 119.053 1898 120.192 1891.5 120.192C1885 120.192 1879.06 119.053 1873.59 116.846C1867.95 114.322 1863.14 111.014 1859.06 106.935C1854.94 102.815 1851.63 98.0898 1849.13 92.7111C1846.94 87.261 1845.81 81.3405 1845.81 74.8606C1845.81 68.3558 1846.95 62.4147 1849.15 56.9476C1851.68 51.3096 1854.98 46.492 1859.06 42.4126C1863.11 38.3626 1867.88 35.2032 1873.46 32.9304L1873.59 32.874L1873.73 32.8134C1879.16 30.3959 1885.06 29.1562 1891.5 29.1562C1897.94 29.1562 1903.83 30.3959 1909.27 32.8134L1909.41 32.874L1909.54 32.9304C1915.12 35.2032 1919.89 38.3626 1923.94 42.4126C1927.99 46.4629 1931.15 51.2316 1933.42 56.8103L1933.47 56.9488L1933.53 57.0853C1935.95 62.5246 1937.19 68.4139 1937.19 74.8606C1937.19 81.3069 1935.95 87.1967 1933.53 92.636L1933.5 92.7144L1933.47 92.7932C1931.21 98.1296 1928.04 102.825 1923.94 106.935Z" fill="#E20613"/>
<path fill-rule="evenodd" clip-rule="evenodd" d="M1578 246.303H1721.94V300H1752.11V246.303H1780V217.176H1752.11V5H1722.23L1578 224.22V246.303ZM1618.14 217.176L1721.94 58.6912V217.176H1618.14Z" fill="#E20613"/>
<path d="M1340.34 304.593H1277.26V137.502H1424.73C1437.78 137.502 1448.37 133.876 1456.49 126.624C1464.9 119.372 1469.1 109.218 1469.1 96.1644C1469.1 83.1104 1464.9 72.9573 1456.49 65.7051C1448.08 58.1627 1437.5 54.3916 1424.73 54.3916H1299.01C1293.22 54.3916 1288.14 52.216 1283.79 47.8646C1279.44 43.5133 1277.26 38.4368 1277.26 32.635V0H1430.39C1444.6 0 1457.79 2.32072 1469.97 6.96215C1482.45 11.3135 1493.18 17.6954 1502.17 26.108C1511.45 34.2304 1518.7 44.2385 1523.92 56.1322C1529.43 67.7357 1532.18 80.9347 1532.18 95.7293C1532.18 110.524 1529.43 123.723 1523.92 135.326C1518.7 146.93 1511.45 156.793 1502.17 164.915C1493.18 172.748 1482.45 178.84 1469.97 183.191C1457.51 187.542 1444.31 189.718 1430.39 189.718H1340.34V304.593Z" fill="white"/>
<path fill-rule="evenodd" clip-rule="evenodd" d="M1001.75 248.896H1052.33C1064.83 248.896 1074.95 259.027 1074.95 271.523V304.593H980.093L1001.75 248.896Z" fill="#E20613"/>
<path d="M1074.49 61.7889L1170.63 304.593H1238.49L1117.56 0H1055.35C1048.39 0 1042.01 2.03062 1036.21 6.09186C1030.12 9.86299 1025.77 15.0846 1023.16 21.7566L912.231 304.593H980.093L1074.49 61.7889Z" fill="white"/>
<path d="M855.444 304.593H662.296V0H703.623C709.423 0 714.498 2.17566 718.848 6.52699C723.198 10.8783 725.373 15.9548 725.373 21.7566V248.896H891.985L875.454 290.669C874.001 294.73 871.391 298.066 867.624 300.677C863.854 303.288 859.794 304.593 855.444 304.593Z" fill="white"/>
<path fill-rule="evenodd" clip-rule="evenodd" d="M526.926 248.896H476.344C463.851 248.896 453.723 259.027 453.723 271.523V304.593H548.58L526.926 248.896Z" fill="#E20613"/>
<path d="M454.181 61.7889L358.043 304.593H290.18L411.115 0H473.322C480.282 0 486.663 2.03062 492.463 6.09186C498.553 9.86299 502.903 15.0846 505.513 21.7566L616.443 304.593H548.58L454.181 61.7889Z" fill="white"/>
<path d="M63.0775 52.216V304.593H0V0H142.686C155.736 0 168.352 1.74053 180.532 5.2216C193.002 8.41257 204.023 13.4891 213.593 20.4513C223.453 27.1233 231.284 35.6809 237.084 46.1241C243.175 56.5673 246.22 69.0411 246.22 83.5455C246.22 97.4698 242.885 109.799 236.214 120.532C229.544 131.265 220.554 140.258 209.243 147.51C222.874 154.182 234.184 163.465 243.175 175.359C252.165 186.962 256.66 200.596 256.66 216.261C256.66 231.345 253.615 244.545 247.525 255.858C241.724 266.882 233.749 276.02 223.599 283.272C213.739 290.523 202.428 295.89 189.667 299.371C176.907 302.853 163.566 304.593 149.646 304.593H84.8283L99.6189 266.301C101.069 262.24 103.679 258.904 107.449 256.293C111.219 253.683 115.28 252.377 119.63 252.377C127.17 252.377 135.145 252.377 143.556 252.377C152.256 252.087 160.232 250.782 167.482 248.461C175.022 246.14 181.257 242.224 186.187 236.712C191.118 231.201 193.583 223.223 193.583 212.78C193.583 206.108 192.132 200.307 189.232 195.375C186.622 190.443 182.997 186.382 178.357 183.191C173.717 180 168.497 177.68 162.696 176.229C156.896 174.488 150.951 173.618 144.861 173.618H85.6984L98.7489 138.372C100.199 134.311 102.809 130.975 106.579 128.364C110.64 125.753 114.844 124.448 119.195 124.448C125.865 124.448 132.825 124.303 140.075 124.013C147.616 123.723 154.576 122.562 160.956 120.532C167.336 118.211 172.556 114.585 176.617 109.654C180.967 104.722 183.142 97.6151 183.142 88.332C183.142 81.9501 181.837 76.4383 179.227 71.7969C176.907 67.1556 173.572 63.3843 169.222 60.4835C165.161 57.5826 160.521 55.5519 155.301 54.3916C150.081 52.9412 144.571 52.216 138.77 52.216H63.0775Z" fill="white"/>
</g>
<defs>
<clipPath id="clip0_598_2">
<rect width="1985" height="305" fill="white"/>
</clipPath>
</defs>
</svg>
