<svg width="1533" height="1080" viewBox="0 0 1533 1080" fill="none" xmlns="http://www.w3.org/2000/svg">
<g clip-path="url(#clip0_168_69)">
<path fill-rule="evenodd" clip-rule="evenodd" d="M1193.43 885.304C1192.86 864.042 1189.13 843.519 1182.21 823.821C1175.81 804.128 1166.46 786.257 1154.13 770.353C1142.38 754.522 1128.06 740.827 1111.32 729.259C1106.2 725.61 1100.94 722.219 1095.54 719.088C1108.56 708.986 1119.95 696.771 1129.67 682.512C1147.54 656.299 1156.64 627.323 1156.64 596.045C1156.64 574.573 1152.45 554.079 1144 534.762C1135.72 515.827 1124.36 499.299 1109.91 485.402C1095.47 471 1078.41 459.956 1058.95 452.24C1039.67 443.858 1019.03 439.745 997.25 439.745C975.334 439.745 954.401 443.907 934.625 452.301L934.521 452.344L934.417 452.389C915.493 460.67 898.78 471.988 884.442 486.336C870.121 500.657 858.822 517.336 850.548 536.218C842.068 555.039 837.859 575.052 837.859 596.045C837.859 627.323 846.959 656.299 864.827 682.512C874.462 696.651 885.747 708.781 898.632 718.833C875.759 731.859 856.02 749.341 839.545 771.184L839.529 771.207L839.512 771.23C814.916 804.033 802.21 842.316 801.064 885.313L801.051 885.792L801.061 886.27C801.636 913.301 807.117 938.886 817.622 962.819L817.659 962.897L817.697 962.984C828.054 986.003 841.948 1006.31 859.38 1023.75C876.899 1041.27 897.336 1054.97 920.513 1064.83L920.6 1064.87L920.679 1064.9C944.648 1074.84 970.245 1079.74 997.25 1079.74C1023.8 1079.74 1049.11 1074.82 1073.04 1064.9C1096.75 1055.06 1117.52 1041.36 1135.12 1023.75C1152.55 1006.31 1166.45 986.003 1176.8 962.984L1176.84 962.897L1176.88 962.819C1187.38 938.886 1192.86 913.301 1193.43 886.27L1193.45 885.783L1193.43 885.304ZM902.556 791.91C914.832 779.631 928.857 770.122 944.744 763.298C960.953 756.56 978.388 753.128 997.25 753.128C1016.16 753.128 1033.29 756.574 1048.88 763.258L1048.97 763.298L1049.06 763.337C1065.43 770.158 1079.3 779.597 1090.89 791.641L1091.15 791.912L1091.42 792.174C1103.46 803.772 1112.9 817.644 1119.73 834.016L1119.76 834.109L1119.8 834.202C1126.49 849.8 1129.93 866.935 1129.93 885.844C1129.93 904.711 1126.5 922.151 1119.76 938.364C1112.94 954.255 1103.43 968.284 1091.16 980.563C1079.55 992.182 1065.59 1001.46 1049.06 1008.35L1048.97 1008.39L1048.88 1008.43C1033.29 1015.11 1016.16 1018.56 997.25 1018.56C978.388 1018.56 960.944 1015.13 944.744 1008.39C928.822 1001.55 914.797 992.277 902.565 980.555C890.837 968.319 881.579 954.29 874.741 938.364C868 922.151 864.569 904.711 864.569 885.844C864.569 866.935 868.014 849.8 874.697 834.202L874.732 834.109L874.776 834.016C881.666 817.483 890.941 803.527 902.556 791.91ZM1065.32 664.131C1056.76 672.691 1046.65 679.632 1034.83 684.929C1023.36 689.559 1010.89 691.948 997.25 691.948C983.608 691.948 971.141 689.559 959.674 684.929C947.841 679.632 937.74 672.691 929.179 664.131C920.539 655.485 913.597 645.571 908.333 634.285C903.739 622.849 901.373 610.425 901.373 596.828C901.373 583.179 903.765 570.713 908.385 559.241C913.684 547.41 920.626 537.301 929.179 528.741C937.679 520.243 947.685 513.614 959.386 508.845L959.674 508.726L959.961 508.599C971.367 503.526 983.73 500.925 997.25 500.925C1010.77 500.925 1023.13 503.526 1034.54 508.599L1034.83 508.726L1035.11 508.845C1046.82 513.614 1056.82 520.243 1065.32 528.741C1073.81 537.24 1080.44 547.247 1085.21 558.953L1085.32 559.243L1085.45 559.53C1090.53 570.943 1093.13 583.301 1093.13 596.828C1093.13 610.355 1090.53 622.714 1085.45 634.127L1085.38 634.292L1085.32 634.457C1080.57 645.655 1073.94 655.508 1065.32 664.131Z" fill="#E20613"/>
<path fill-rule="evenodd" clip-rule="evenodd" d="M339.313 956.77H642.346V1069.56H705.859V956.77H764.586V895.591H705.859V449.927H642.972L339.313 910.385V956.77ZM423.81 895.591L642.346 562.703V895.591H423.81Z" fill="#E20613"/>
<path d="M1340.34 304.593H1277.26V137.502H1424.73C1437.78 137.502 1448.37 133.876 1456.49 126.624C1464.9 119.372 1469.1 109.218 1469.1 96.1644C1469.1 83.1104 1464.9 72.9573 1456.49 65.7051C1448.08 58.1627 1437.5 54.3916 1424.73 54.3916H1299.01C1293.22 54.3916 1288.14 52.216 1283.79 47.8646C1279.44 43.5133 1277.26 38.4368 1277.26 32.635V0H1430.39C1444.6 0 1457.79 2.32072 1469.97 6.96215C1482.45 11.3135 1493.18 17.6954 1502.17 26.108C1511.45 34.2304 1518.7 44.2385 1523.92 56.1322C1529.43 67.7357 1532.18 80.9347 1532.18 95.7293C1532.18 110.524 1529.43 123.723 1523.92 135.326C1518.7 146.93 1511.45 156.793 1502.17 164.915C1493.18 172.748 1482.45 178.84 1469.97 183.191C1457.51 187.542 1444.31 189.718 1430.39 189.718H1340.34V304.593Z" fill="white"/>
<path fill-rule="evenodd" clip-rule="evenodd" d="M1001.75 248.896H1052.33C1064.83 248.896 1074.95 259.027 1074.95 271.523V304.593H980.093L1001.75 248.896Z" fill="#E20613"/>
<path d="M1074.49 61.7889L1170.63 304.593H1238.49L1117.56 0H1055.35C1048.39 0 1042.01 2.03062 1036.21 6.09186C1030.12 9.86299 1025.77 15.0846 1023.16 21.7566L912.231 304.593H980.093L1074.49 61.7889Z" fill="white"/>
<path d="M855.444 304.593H662.296V0H703.623C709.423 0 714.498 2.17566 718.848 6.52699C723.198 10.8783 725.373 15.9548 725.373 21.7566V248.896H891.985L875.454 290.669C874.001 294.73 871.391 298.066 867.624 300.677C863.854 303.288 859.794 304.593 855.444 304.593Z" fill="white"/>
<path fill-rule="evenodd" clip-rule="evenodd" d="M526.926 248.896H476.344C463.851 248.896 453.723 259.027 453.723 271.523V304.593H548.58L526.926 248.896Z" fill="#E20613"/>
<path d="M454.181 61.7889L358.043 304.593H290.18L411.115 0H473.322C480.282 0 486.663 2.03062 492.463 6.09186C498.553 9.86299 502.903 15.0846 505.513 21.7566L616.443 304.593H548.58L454.181 61.7889Z" fill="white"/>
<path d="M63.0775 52.216V304.593H0V0H142.686C155.736 0 168.352 1.74053 180.532 5.2216C193.002 8.41257 204.023 13.4891 213.593 20.4513C223.453 27.1233 231.284 35.6809 237.084 46.1241C243.175 56.5673 246.22 69.0411 246.22 83.5455C246.22 97.4698 242.885 109.799 236.214 120.532C229.544 131.265 220.554 140.258 209.243 147.51C222.874 154.182 234.184 163.465 243.175 175.359C252.165 186.962 256.66 200.596 256.66 216.261C256.66 231.345 253.615 244.545 247.525 255.858C241.724 266.882 233.749 276.02 223.599 283.272C213.739 290.523 202.428 295.89 189.667 299.371C176.907 302.853 163.566 304.593 149.646 304.593H84.8283L99.6189 266.301C101.069 262.24 103.679 258.904 107.449 256.293C111.219 253.683 115.28 252.377 119.63 252.377C127.17 252.377 135.145 252.377 143.556 252.377C152.256 252.087 160.232 250.782 167.482 248.461C175.022 246.14 181.257 242.224 186.187 236.712C191.118 231.201 193.583 223.223 193.583 212.78C193.583 206.108 192.132 200.307 189.232 195.375C186.622 190.443 182.997 186.382 178.357 183.191C173.717 180 168.497 177.68 162.696 176.229C156.896 174.488 150.951 173.618 144.861 173.618H85.6984L98.7489 138.372C100.199 134.311 102.809 130.975 106.579 128.364C110.64 125.753 114.844 124.448 119.195 124.448C125.865 124.448 132.825 124.303 140.075 124.013C147.616 123.723 154.576 122.562 160.956 120.532C167.336 118.211 172.556 114.585 176.617 109.654C180.967 104.722 183.142 97.6151 183.142 88.332C183.142 81.9501 181.837 76.4383 179.227 71.7969C176.907 67.1556 173.572 63.3843 169.222 60.4835C165.161 57.5826 160.521 55.5519 155.301 54.3916C150.081 52.9412 144.571 52.216 138.77 52.216H63.0775Z" fill="white"/>
</g>
<defs>
<clipPath id="clip0_168_69">
<rect width="1533" height="1080" fill="white"/>
</clipPath>
</defs>
</svg>
